<?xml version="1.0" encoding="utf-8"?>
<!-- Generator: Adobe Illustrator 17.1.0, SVG Export Plug-In . SVG Version: 6.00 Build 0)  -->
<!DOCTYPE svg PUBLIC "-//W3C//DTD SVG 1.1//EN" "http://www.w3.org/Graphics/SVG/1.1/DTD/svg11.dtd" [
	<!ENTITY ns_flows "http://ns.adobe.com/Flows/1.0/">
	<!ENTITY ns_extend "http://ns.adobe.com/Extensibility/1.0/">
	<!ENTITY ns_ai "http://ns.adobe.com/AdobeIllustrator/10.0/">
	<!ENTITY ns_graphs "http://ns.adobe.com/Graphs/1.0/">
]>
<svg version="1.1" id="Layer_1" xmlns:x="&ns_extend;" xmlns:i="&ns_ai;" xmlns:graph="&ns_graphs;"
	 xmlns="http://www.w3.org/2000/svg" xmlns:xlink="http://www.w3.org/1999/xlink" xmlns:a="http://ns.adobe.com/AdobeSVGViewerExtensions/3.0/"
	 x="0px" y="0px" viewBox="0 0 702.5 1000" style="enable-background:new 0 0 702.5 1000;" xml:space="preserve">
<g>
	<rect x="0" y="0" style="fill:#063D70;" width="702.7" height="999.3"/>
	<path style="opacity:0.3;fill:#1D1D1D;" d="M0,214.5c0.9,0,1.8,0,2.7,0c129.8-3.1,207.2-94.9,207.2-211.9c0-0.9,0-1.7,0-2.6L0,0
		V214.5z"/>
	<path style="fill:#FF397F;" d="M0,209.8c0.9,0,1.7,0,2.6,0c114.5,0,207.3-92.8,207.3-207.3c0-0.8,0-1.7,0-2.5H0V209.8z"/>
	<path style="opacity:0.3;fill:#1D1D1D;" d="M0,999.4c342.3-260.1,600-67.9,606.1-430.6C610.6,295,585.7,2.2,702.7,0l-7.8,991.5
		L0,999.4z"/>
	<path style="fill:#F8CE5D;" d="M0,999.4c352.2-238.7,614.7-59,620.8-424.5C625.4,298.9,595.3,0,702.6,0l0,999.4H0z"/>
	<g>
		<circle style="opacity:5.000000e-002;fill:#FFFFFF;" cx="47.1" cy="221.9" r="35.4"/>
		<circle style="opacity:5.000000e-002;fill:#FFFFFF;" cx="91.5" cy="574.1" r="35.4"/>
		<circle style="opacity:5.000000e-002;fill:#063D70;" cx="571.5" cy="505.5" r="27.6"/>
		<circle style="opacity:5.000000e-002;fill:#FFFFFF;" cx="157.7" cy="335.3" r="19.9"/>
		<circle style="opacity:5.000000e-002;fill:#FFFFFF;" cx="334.6" cy="421.9" r="19.9"/>
		<circle style="opacity:5.000000e-002;fill:#FFFFFF;" cx="461" cy="275.3" r="30.2"/>
		<circle style="opacity:5.000000e-002;fill:#063D70;" cx="362.4" cy="210.6" r="30.2"/>
		<circle style="opacity:5.000000e-002;fill:#FFFFFF;" cx="564.7" cy="418.9" r="20.6"/>
		<circle style="opacity:5.000000e-002;fill:#FFFFFF;" cx="399.7" cy="777.6" r="20.6"/>
		<circle style="opacity:5.000000e-002;fill:#FFFFFF;" cx="69.5" cy="759.3" r="9.3"/>
		<circle style="opacity:5.000000e-002;fill:#FFFFFF;" cx="323.6" cy="556.4" r="9.3"/>
		<circle style="opacity:5.000000e-002;fill:#FFFFFF;" cx="205.5" cy="192.2" r="9.3"/>
		<circle style="opacity:5.000000e-002;fill:#FFFFFF;" cx="510.5" cy="644.1" r="9.3"/>
	</g>
</g>
</svg>
